<svg width="167" height="65" viewBox="0 0 167 65" fill="none" xmlns="http://www.w3.org/2000/svg">
<path d="M0.618356 64V49.25H6.09836C7.09169 49.25 8.00169 49.4333 8.82836 49.8C9.65502 50.1667 10.3684 50.68 10.9684 51.34C11.5684 52 12.0317 52.7767 12.3584 53.67C12.685 54.5633 12.8484 55.5367 12.8484 56.59C12.8484 57.6433 12.685 58.62 12.3584 59.52C12.0317 60.42 11.5684 61.2067 10.9684 61.88C10.3684 62.5467 9.65502 63.0667 8.82836 63.44C8.00169 63.8133 7.09169 64 6.09836 64H0.618356ZM4.65836 62.82L2.83836 61H5.55836C6.13169 61 6.65836 60.8233 7.13836 60.47C7.62502 60.11 8.01502 59.6 8.30836 58.94C8.60169 58.28 8.74836 57.4967 8.74836 56.59C8.74836 55.6767 8.60169 54.8967 8.30836 54.25C8.01502 53.6033 7.62502 53.11 7.13836 52.77C6.65836 52.4233 6.13169 52.25 5.55836 52.25H2.83836L4.65836 50.43V62.82ZM23.4618 64.26C22.5085 64.26 21.6018 64.0967 20.7418 63.77C19.8885 63.4433 19.1318 62.9567 18.4718 62.31C17.8118 61.6633 17.2918 60.8633 16.9118 59.91C16.5318 58.9567 16.3418 57.8567 16.3418 56.61C16.3418 55.3567 16.5285 54.2567 16.9018 53.31C17.2818 52.3633 17.7985 51.57 18.4518 50.93C19.1118 50.29 19.8685 49.81 20.7218 49.49C21.5818 49.1633 22.4951 49 23.4618 49C24.4285 49 25.3418 49.1633 26.2018 49.49C27.0618 49.81 27.8185 50.29 28.4718 50.93C29.1318 51.57 29.6485 52.3633 30.0218 53.31C30.3951 54.2567 30.5818 55.3567 30.5818 56.61C30.5818 57.8567 30.3918 58.9567 30.0118 59.91C29.6318 60.8633 29.1085 61.6633 28.4418 62.31C27.7818 62.9567 27.0218 63.4433 26.1618 63.77C25.3085 64.0967 24.4085 64.26 23.4618 64.26ZM23.4618 61.14C23.9551 61.14 24.4318 61.0067 24.8918 60.74C25.3585 60.4667 25.7385 60 26.0318 59.34C26.3318 58.68 26.4818 57.77 26.4818 56.61C26.4818 55.4433 26.3318 54.5367 26.0318 53.89C25.7318 53.2367 25.3518 52.78 24.8918 52.52C24.4318 52.2533 23.9551 52.12 23.4618 52.12C22.9751 52.12 22.4985 52.2533 22.0318 52.52C21.5718 52.78 21.1918 53.2367 20.8918 53.89C20.5918 54.5367 20.4418 55.4433 20.4418 56.61C20.4418 57.7767 20.5918 58.69 20.8918 59.35C21.1918 60.0033 21.5718 60.4667 22.0318 60.74C22.4985 61.0067 22.9751 61.14 23.4618 61.14ZM38.4163 64H34.4863V49.25H40.6463L44.7163 62.79L43.9363 62.95V49.25H47.8663V64H41.6563L37.5863 50.51L38.4163 50.35V64ZM54.4123 52.25L56.2323 50.43V56.18L55.3323 55.1H60.6323V58.1H55.3323L56.2323 57.03V62.82L54.4123 61H61.7423V64H52.1723V49.25H61.7423V52.25H54.4123ZM73.1496 64V49.25H79.6896C81.3696 49.25 82.6096 49.6233 83.4096 50.37C84.2163 51.11 84.6196 52.1433 84.6196 53.47C84.6196 54.2167 84.4763 54.8533 84.1896 55.38C83.9029 55.9067 83.5463 56.3133 83.1196 56.6C82.6929 56.8867 82.2696 57.0467 81.8496 57.08C82.2829 57.1067 82.6863 57.21 83.0596 57.39C83.4329 57.57 83.7329 57.86 83.9596 58.26C84.1929 58.6533 84.3096 59.1867 84.3096 59.86C84.3096 60.2867 84.3096 60.6933 84.3096 61.08C84.3096 61.4667 84.3096 61.8733 84.3096 62.3C84.3096 62.6533 84.3363 62.99 84.3896 63.31C84.4496 63.6233 84.5396 63.8533 84.6596 64H80.6196C80.5129 63.8333 80.4296 63.5967 80.3696 63.29C80.3163 62.9833 80.2896 62.6533 80.2896 62.3C80.2896 61.9333 80.2896 61.6033 80.2896 61.31C80.2896 61.0167 80.2896 60.6867 80.2896 60.32C80.2896 59.7867 80.1763 59.3667 79.9496 59.06C79.7229 58.7467 79.3129 58.59 78.7196 58.59H76.0396L77.0896 57.36V64H73.1496ZM77.0896 57L76.0396 55.59H78.7596C79.0996 55.59 79.3963 55.52 79.6496 55.38C79.9096 55.24 80.1096 55.04 80.2496 54.78C80.3963 54.5133 80.4696 54.2033 80.4696 53.85C80.4696 53.4167 80.3129 53.04 79.9996 52.72C79.6929 52.4 79.2729 52.24 78.7396 52.24H75.9396L77.0896 51.04V57ZM90.7904 52.25L92.6104 50.43V56.18L91.7104 55.1H97.0104V58.1H91.7104L92.6104 57.03V62.82L90.7904 61H98.1204V64H88.5504V49.25H98.1204V52.25H90.7904ZM114.615 58.43C114.615 59.1033 114.485 59.7833 114.225 60.47C113.971 61.15 113.581 61.7767 113.055 62.35C112.535 62.9233 111.871 63.3867 111.065 63.74C110.265 64.0867 109.315 64.26 108.215 64.26C106.768 64.26 105.528 63.9367 104.495 63.29C103.468 62.6367 102.681 61.7367 102.135 60.59C101.595 59.4433 101.325 58.12 101.325 56.62C101.325 55.12 101.595 53.8 102.135 52.66C102.681 51.5133 103.468 50.6167 104.495 49.97C105.528 49.3233 106.768 49 108.215 49C109.415 49 110.438 49.2033 111.285 49.61C112.138 50.0167 112.821 50.55 113.335 51.21C113.855 51.87 114.215 52.5767 114.415 53.33C114.548 53.8433 114.615 54.34 114.615 54.82H110.565C110.565 54.6067 110.551 54.42 110.525 54.26C110.465 53.8267 110.335 53.45 110.135 53.13C109.935 52.81 109.671 52.5633 109.345 52.39C109.025 52.21 108.648 52.12 108.215 52.12C107.695 52.12 107.225 52.2733 106.805 52.58C106.385 52.8867 106.048 53.37 105.795 54.03C105.548 54.69 105.425 55.5533 105.425 56.62C105.425 57.68 105.548 58.5433 105.795 59.21C106.048 59.8767 106.385 60.3667 106.805 60.68C107.225 60.9933 107.695 61.15 108.215 61.15C108.588 61.15 108.918 61.0833 109.205 60.95C109.498 60.81 109.745 60.6167 109.945 60.37C110.145 60.1233 110.298 59.8367 110.405 59.51C110.511 59.1767 110.565 58.8167 110.565 58.43H114.615ZM118.462 64V49.25H122.442V64H118.462ZM130.726 64H126.686V49.25H132.336C133.456 49.25 134.433 49.4733 135.266 49.92C136.1 50.36 136.746 50.9633 137.206 51.73C137.666 52.4967 137.896 53.3633 137.896 54.33C137.896 55.2967 137.666 56.1767 137.206 56.97C136.746 57.7567 136.1 58.3867 135.266 58.86C134.433 59.3267 133.456 59.56 132.336 59.56H130.726V64ZM130.726 58.39L128.906 56.57H131.926C132.26 56.57 132.57 56.49 132.856 56.33C133.15 56.1633 133.386 55.9133 133.566 55.58C133.746 55.2467 133.836 54.83 133.836 54.33C133.836 53.83 133.746 53.4267 133.566 53.12C133.386 52.8133 133.15 52.5933 132.856 52.46C132.57 52.32 132.26 52.25 131.926 52.25H128.906L130.726 50.43V58.39ZM143.976 52.25L145.796 50.43V56.18L144.896 55.1H150.196V58.1H144.896L145.796 57.03V62.82L143.976 61H151.306V64H141.736V49.25H151.306V52.25H143.976ZM160.963 64.26C159.87 64.26 158.89 64.0867 158.023 63.74C157.156 63.3867 156.47 62.8633 155.963 62.17C155.463 61.4767 155.213 60.6167 155.213 59.59C155.213 59.5033 155.213 59.4167 155.213 59.33C155.213 59.2433 155.213 59.1567 155.213 59.07H159.243C159.243 59.1433 159.243 59.2167 159.243 59.29C159.243 59.3633 159.243 59.4367 159.243 59.51C159.243 59.9767 159.386 60.3667 159.673 60.68C159.966 60.9933 160.41 61.15 161.003 61.15C161.576 61.15 162.026 61.0667 162.353 60.9C162.686 60.7267 162.853 60.4467 162.853 60.06C162.853 59.7733 162.696 59.5067 162.383 59.26C162.076 59.0133 161.66 58.78 161.133 58.56C160.613 58.34 160.033 58.13 159.393 57.93C158.7 57.71 158.04 57.4133 157.413 57.04C156.793 56.6667 156.286 56.1833 155.893 55.59C155.5 54.99 155.303 54.2467 155.303 53.36C155.303 52.4467 155.556 51.6667 156.063 51.02C156.57 50.3667 157.25 49.8667 158.103 49.52C158.963 49.1733 159.916 49 160.963 49C162.05 49 163.02 49.17 163.873 49.51C164.733 49.85 165.413 50.35 165.913 51.01C166.413 51.67 166.663 52.4867 166.663 53.46C166.663 53.5467 166.663 53.63 166.663 53.71C166.663 53.79 166.663 53.8733 166.663 53.96H162.633C162.633 53.9267 162.633 53.8767 162.633 53.81C162.633 53.7367 162.633 53.6833 162.633 53.65C162.633 53.2167 162.51 52.85 162.263 52.55C162.023 52.25 161.606 52.1 161.013 52.1C160.426 52.1 159.973 52.2067 159.653 52.42C159.34 52.6333 159.183 52.9433 159.183 53.35C159.183 53.6367 159.316 53.89 159.583 54.11C159.85 54.3233 160.216 54.5233 160.683 54.71C161.156 54.8967 161.69 55.0967 162.283 55.31C163.176 55.6233 163.96 55.97 164.633 56.35C165.306 56.7233 165.83 57.1933 166.203 57.76C166.583 58.3267 166.773 59.0533 166.773 59.94C166.773 60.8667 166.523 61.6533 166.023 62.3C165.523 62.94 164.833 63.4267 163.953 63.76C163.08 64.0933 162.083 64.26 160.963 64.26Z" fill="#41197F"/>
<rect x="64.7738" y="0.773842" width="37.1444" height="37.1444" rx="18.5722" stroke="#FCC436" stroke-width="1.54768"/>
<path d="M103.607 8.53861L103.608 8.53827C104.699 7.44721 104.699 5.70037 103.608 4.60931L102.9 5.31642L103.608 4.60931C102.516 3.51825 100.77 3.51825 99.6786 4.60931L100.386 5.31642L99.6786 4.60931L82.6028 21.6851L77.023 16.1053C75.932 15.0142 74.1851 15.0142 73.0941 16.1053C72.003 17.1964 72.003 18.9432 73.0941 20.0343L80.6203 27.5606C81.7114 28.6516 83.4762 28.6516 84.5673 27.5606L103.607 8.53861Z" fill="#FCC436" stroke="#FCC436" stroke-width="2"/>
</svg>
