<svg width="124" height="65" viewBox="0 0 124 65" fill="none" xmlns="http://www.w3.org/2000/svg">
<path d="M2.3082 52.25L4.1282 50.43V56.29L2.8982 55.34H8.9782V58.35H2.8982L4.1282 57.32V64H0.108202V49.25H9.8682V52.25H2.3082ZM11.977 64L15.407 49.25H21.817L25.227 64H21.097L18.607 51.66H18.627L16.107 64H11.977ZM14.977 60.9V57.87H22.257V60.9H14.977ZM30.3285 64L26.9285 49.25H31.3985L33.4385 61.69H33.2885L35.3185 49.25H39.7885L36.4085 64H30.3285ZM49.3977 64.26C48.4444 64.26 47.5377 64.0967 46.6777 63.77C45.8244 63.4433 45.0677 62.9567 44.4077 62.31C43.7477 61.6633 43.2277 60.8633 42.8477 59.91C42.4677 58.9567 42.2777 57.8567 42.2777 56.61C42.2777 55.3567 42.4644 54.2567 42.8377 53.31C43.2177 52.3633 43.7344 51.57 44.3877 50.93C45.0477 50.29 45.8044 49.81 46.6577 49.49C47.5177 49.1633 48.4311 49 49.3977 49C50.3644 49 51.2777 49.1633 52.1377 49.49C52.9977 49.81 53.7544 50.29 54.4077 50.93C55.0677 51.57 55.5844 52.3633 55.9577 53.31C56.3311 54.2567 56.5177 55.3567 56.5177 56.61C56.5177 57.8567 56.3277 58.9567 55.9477 59.91C55.5677 60.8633 55.0444 61.6633 54.3777 62.31C53.7177 62.9567 52.9577 63.4433 52.0977 63.77C51.2444 64.0967 50.3444 64.26 49.3977 64.26ZM49.3977 61.14C49.8911 61.14 50.3677 61.0067 50.8277 60.74C51.2944 60.4667 51.6744 60 51.9677 59.34C52.2677 58.68 52.4177 57.77 52.4177 56.61C52.4177 55.4433 52.2677 54.5367 51.9677 53.89C51.6677 53.2367 51.2877 52.78 50.8277 52.52C50.3677 52.2533 49.8911 52.12 49.3977 52.12C48.9111 52.12 48.4344 52.2533 47.9677 52.52C47.5077 52.78 47.1277 53.2367 46.8277 53.89C46.5277 54.5367 46.3777 55.4433 46.3777 56.61C46.3777 57.7767 46.5277 58.69 46.8277 59.35C47.1277 60.0033 47.5077 60.4667 47.9677 60.74C48.4344 61.0067 48.9111 61.14 49.3977 61.14ZM60.4223 64V49.25H66.9623C68.6423 49.25 69.8823 49.6233 70.6823 50.37C71.4889 51.11 71.8923 52.1433 71.8923 53.47C71.8923 54.2167 71.7489 54.8533 71.4623 55.38C71.1756 55.9067 70.8189 56.3133 70.3923 56.6C69.9656 56.8867 69.5423 57.0467 69.1223 57.08C69.5556 57.1067 69.9589 57.21 70.3323 57.39C70.7056 57.57 71.0056 57.86 71.2323 58.26C71.4656 58.6533 71.5823 59.1867 71.5823 59.86C71.5823 60.2867 71.5823 60.6933 71.5823 61.08C71.5823 61.4667 71.5823 61.8733 71.5823 62.3C71.5823 62.6533 71.6089 62.99 71.6623 63.31C71.7223 63.6233 71.8123 63.8533 71.9323 64H67.8923C67.7856 63.8333 67.7023 63.5967 67.6423 63.29C67.5889 62.9833 67.5623 62.6533 67.5623 62.3C67.5623 61.9333 67.5623 61.6033 67.5623 61.31C67.5623 61.0167 67.5623 60.6867 67.5623 60.32C67.5623 59.7867 67.4489 59.3667 67.2223 59.06C66.9956 58.7467 66.5856 58.59 65.9923 58.59H63.3123L64.3623 57.36V64H60.4223ZM64.3623 57L63.3123 55.59H66.0323C66.3723 55.59 66.6689 55.52 66.9223 55.38C67.1823 55.24 67.3823 55.04 67.5223 54.78C67.6689 54.5133 67.7423 54.2033 67.7423 53.85C67.7423 53.4167 67.5856 53.04 67.2723 52.72C66.9656 52.4 66.5456 52.24 66.0123 52.24H63.2123L64.3623 51.04V57ZM75.773 64V49.25H79.753V64H75.773ZM94.4373 52.25H89.1573L90.9773 50.43V64H86.9473V50.43L88.7673 52.25H83.4973V49.25H94.4373V52.25ZM100.486 52.25L102.306 50.43V56.18L101.406 55.1H106.706V58.1H101.406L102.306 57.03V62.82L100.486 61H107.816V64H98.2457V49.25H107.816V52.25H100.486ZM117.473 64.26C116.38 64.26 115.4 64.0867 114.533 63.74C113.666 63.3867 112.98 62.8633 112.473 62.17C111.973 61.4767 111.723 60.6167 111.723 59.59C111.723 59.5033 111.723 59.4167 111.723 59.33C111.723 59.2433 111.723 59.1567 111.723 59.07H115.753C115.753 59.1433 115.753 59.2167 115.753 59.29C115.753 59.3633 115.753 59.4367 115.753 59.51C115.753 59.9767 115.896 60.3667 116.183 60.68C116.476 60.9933 116.92 61.15 117.513 61.15C118.086 61.15 118.536 61.0667 118.863 60.9C119.196 60.7267 119.363 60.4467 119.363 60.06C119.363 59.7733 119.206 59.5067 118.893 59.26C118.586 59.0133 118.17 58.78 117.643 58.56C117.123 58.34 116.543 58.13 115.903 57.93C115.21 57.71 114.55 57.4133 113.923 57.04C113.303 56.6667 112.796 56.1833 112.403 55.59C112.01 54.99 111.813 54.2467 111.813 53.36C111.813 52.4467 112.066 51.6667 112.573 51.02C113.08 50.3667 113.76 49.8667 114.613 49.52C115.473 49.1733 116.426 49 117.473 49C118.56 49 119.53 49.17 120.383 49.51C121.243 49.85 121.923 50.35 122.423 51.01C122.923 51.67 123.173 52.4867 123.173 53.46C123.173 53.5467 123.173 53.63 123.173 53.71C123.173 53.79 123.173 53.8733 123.173 53.96H119.143C119.143 53.9267 119.143 53.8767 119.143 53.81C119.143 53.7367 119.143 53.6833 119.143 53.65C119.143 53.2167 119.02 52.85 118.773 52.55C118.533 52.25 118.116 52.1 117.523 52.1C116.936 52.1 116.483 52.2067 116.163 52.42C115.85 52.6333 115.693 52.9433 115.693 53.35C115.693 53.6367 115.826 53.89 116.093 54.11C116.36 54.3233 116.726 54.5233 117.193 54.71C117.666 54.8967 118.2 55.0967 118.793 55.31C119.686 55.6233 120.47 55.97 121.143 56.35C121.816 56.7233 122.34 57.1933 122.713 57.76C123.093 58.3267 123.283 59.0533 123.283 59.94C123.283 60.8667 123.033 61.6533 122.533 62.3C122.033 62.94 121.343 63.4267 120.463 63.76C119.59 64.0933 118.593 64.26 117.473 64.26Z" fill="#41197F"/>
<rect x="42.7738" y="0.773842" width="37.1444" height="37.1444" rx="18.5722" stroke="#FCC436" stroke-width="1.54768"/>
<rect x="42.7738" y="0.773842" width="37.1444" height="37.1444" rx="18.5722" stroke="#FCC436" stroke-width="1.54768"/>
<path d="M61.445 31.2987C61.3342 31.2987 61.2252 31.2703 61.1285 31.2161C59.1597 30.0629 57.3119 28.7145 55.6131 27.1914C51.8885 23.8393 50 20.4987 50 17.2624C50.0004 15.9229 50.4301 14.6187 51.2262 13.5414C52.0222 12.4641 53.1427 11.6704 54.423 11.2767C55.7033 10.883 57.0762 10.9101 58.34 11.3539C59.6038 11.7978 60.6921 12.6352 61.445 13.743C62.1979 12.6352 63.2862 11.7978 64.55 11.3539C65.8138 10.9101 67.1867 10.883 68.467 11.2767C69.7473 11.6704 70.8678 12.4641 71.6638 13.5414C72.4599 14.6187 72.8896 15.9229 72.89 17.2624C72.89 20.4987 71.0015 23.8393 67.2769 27.1914C65.5781 28.7145 63.7303 30.0629 61.7615 31.2161C61.6648 31.2703 61.5558 31.2987 61.445 31.2987Z" fill="#FCC436"/>
</svg>
