<svg width="93" height="61" viewBox="0 0 93 61" fill="none" xmlns="http://www.w3.org/2000/svg">
<path d="M4.0607 60H0.020704V45.25H5.6707C6.7907 45.25 7.76737 45.4733 8.6007 45.92C9.43404 46.36 10.0807 46.9633 10.5407 47.73C11.0007 48.4967 11.2307 49.3633 11.2307 50.33C11.2307 51.2967 11.0007 52.1767 10.5407 52.97C10.0807 53.7567 9.43404 54.3867 8.6007 54.86C7.76737 55.3267 6.7907 55.56 5.6707 55.56H4.0607V60ZM4.0607 54.39L2.2407 52.57H5.2607C5.59404 52.57 5.90404 52.49 6.1907 52.33C6.48404 52.1633 6.7207 51.9133 6.9007 51.58C7.0807 51.2467 7.1707 50.83 7.1707 50.33C7.1707 49.83 7.0807 49.4267 6.9007 49.12C6.7207 48.8133 6.48404 48.5933 6.1907 48.46C5.90404 48.32 5.59404 48.25 5.2607 48.25H2.2407L4.0607 46.43V54.39ZM15.0699 60V45.25H21.6099C23.2899 45.25 24.5299 45.6233 25.3299 46.37C26.1366 47.11 26.5399 48.1433 26.5399 49.47C26.5399 50.2167 26.3966 50.8533 26.1099 51.38C25.8233 51.9067 25.4666 52.3133 25.0399 52.6C24.6133 52.8867 24.1899 53.0467 23.7699 53.08C24.2033 53.1067 24.6066 53.21 24.9799 53.39C25.3533 53.57 25.6533 53.86 25.8799 54.26C26.1133 54.6533 26.2299 55.1867 26.2299 55.86C26.2299 56.2867 26.2299 56.6933 26.2299 57.08C26.2299 57.4667 26.2299 57.8733 26.2299 58.3C26.2299 58.6533 26.2566 58.99 26.3099 59.31C26.3699 59.6233 26.4599 59.8533 26.5799 60H22.5399C22.4333 59.8333 22.3499 59.5967 22.2899 59.29C22.2366 58.9833 22.2099 58.6533 22.2099 58.3C22.2099 57.9333 22.2099 57.6033 22.2099 57.31C22.2099 57.0167 22.2099 56.6867 22.2099 56.32C22.2099 55.7867 22.0966 55.3667 21.8699 55.06C21.6433 54.7467 21.2333 54.59 20.6399 54.59H17.9599L19.0099 53.36V60H15.0699ZM19.0099 53L17.9599 51.59H20.6799C21.0199 51.59 21.3166 51.52 21.5699 51.38C21.8299 51.24 22.0299 51.04 22.1699 50.78C22.3166 50.5133 22.3899 50.2033 22.3899 49.85C22.3899 49.4167 22.2333 49.04 21.9199 48.72C21.6133 48.4 21.1933 48.24 20.6599 48.24H17.8599L19.0099 47.04V53ZM37.1907 60.26C36.2374 60.26 35.3307 60.0967 34.4707 59.77C33.6174 59.4433 32.8607 58.9567 32.2007 58.31C31.5407 57.6633 31.0207 56.8633 30.6407 55.91C30.2607 54.9567 30.0707 53.8567 30.0707 52.61C30.0707 51.3567 30.2574 50.2567 30.6307 49.31C31.0107 48.3633 31.5274 47.57 32.1807 46.93C32.8407 46.29 33.5974 45.81 34.4507 45.49C35.3107 45.1633 36.224 45 37.1907 45C38.1574 45 39.0707 45.1633 39.9307 45.49C40.7907 45.81 41.5474 46.29 42.2007 46.93C42.8607 47.57 43.3774 48.3633 43.7507 49.31C44.124 50.2567 44.3107 51.3567 44.3107 52.61C44.3107 53.8567 44.1207 54.9567 43.7407 55.91C43.3607 56.8633 42.8374 57.6633 42.1707 58.31C41.5107 58.9567 40.7507 59.4433 39.8907 59.77C39.0374 60.0967 38.1374 60.26 37.1907 60.26ZM37.1907 57.14C37.684 57.14 38.1607 57.0067 38.6207 56.74C39.0874 56.4667 39.4674 56 39.7607 55.34C40.0607 54.68 40.2107 53.77 40.2107 52.61C40.2107 51.4433 40.0607 50.5367 39.7607 49.89C39.4607 49.2367 39.0807 48.78 38.6207 48.52C38.1607 48.2533 37.684 48.12 37.1907 48.12C36.704 48.12 36.2274 48.2533 35.7607 48.52C35.3007 48.78 34.9207 49.2367 34.6207 49.89C34.3207 50.5367 34.1707 51.4433 34.1707 52.61C34.1707 53.7767 34.3207 54.69 34.6207 55.35C34.9207 56.0033 35.3007 56.4667 35.7607 56.74C36.2274 57.0067 36.704 57.14 37.1907 57.14ZM50.4152 48.25L52.2352 46.43V52.29L51.0052 51.34H57.0852V54.35H51.0052L52.2352 53.32V60H48.2152V45.25H57.9752V48.25H50.4152ZM62.0231 60V45.25H66.0031V60H62.0231ZM70.2473 60V45.25H74.2873V58.81L72.4673 56.79H79.5473V60H70.2473ZM85.642 48.25L87.462 46.43V52.18L86.562 51.1H91.862V54.1H86.562L87.462 53.03V58.82L85.642 57H92.972V60H83.402V45.25H92.972V48.25H85.642Z" fill="#41197F"/>
<path fill-rule="evenodd" clip-rule="evenodd" d="M51.575 11.44C51.575 14.3229 49.2379 16.66 46.355 16.66C43.4721 16.66 41.135 14.3229 41.135 11.44C41.135 8.55707 43.4721 6.22 46.355 6.22C49.2379 6.22 51.575 8.55707 51.575 11.44Z" fill="#FCC436"/>
<path d="M46.355 0.75C38.2889 0.75 31.75 7.28888 31.75 15.355C31.75 23.4211 38.2889 29.96 46.355 29.96C54.4211 29.96 60.96 23.4211 60.96 15.355C60.96 7.28888 54.4211 0.75 46.355 0.75ZM46.4392 17.715C42.6671 17.715 39.3017 19.4564 37.1031 22.1782C35.6933 20.2698 34.86 17.91 34.86 15.355C34.86 9.00649 40.0065 3.86 46.355 3.86C52.7036 3.86 57.85 9.00649 57.85 15.355C57.85 17.8618 57.0479 20.1805 55.6862 22.0694C53.4865 19.4101 50.1607 17.715 46.4392 17.715Z" fill="#FCC436" stroke="#FCC436" stroke-width="0.5"/>
</svg>
